<?xml version="1.0" encoding="UTF-8"?>
<svg xmlns="http://www.w3.org/2000/svg" width="178" height="60" viewBox="0 0 178 60" fill="none">
  <rect x="0.5" y="0.5" width="177" height="59" rx="1.5" stroke="#111111"></rect>
  <rect x="1" y="1" width="74" height="58" fill="#F1F0F0"></rect>
  <mask id="mask0_210_396" style="mask-type:luminance" maskUnits="userSpaceOnUse" x="11" y="7" width="53" height="47">
    <path d="M60.1471 7.85291H14.8529C13.0735 7.85291 11.6176 9.30879 11.6176 11.0882V41.0147C11.6176 42.7941 13.0735 44.25 14.8529 44.25H30.625L29.8162 48.2941C28.4816 48.2941 27.3897 49.386 27.3897 50.7206V53.147H47.6103V50.7206C47.6103 49.386 46.5184 48.2941 45.1838 48.2941L44.375 44.25H60.1471C61.9265 44.25 63.3823 42.7941 63.3823 41.0147V11.0882C63.3823 9.30879 61.9265 7.85291 60.1471 7.85291Z" fill="white"></path>
  </mask>
  <g mask="url(#mask0_210_396)">
    <path d="M45.1838 48.2941H29.8162L30.625 44.25H44.375L45.1838 48.2941Z" fill="#453F3C"></path>
    <path d="M43.5662 48.2941H31.4338L32.2426 44.25H42.7574L43.5662 48.2941Z" fill="#CCC4C4"></path>
    <mask id="mask1_210_396" style="mask-type:luminance" maskUnits="userSpaceOnUse" x="31" y="44" width="13" height="5">
      <path d="M43.5662 48.2941H31.4338L32.2426 44.25H42.7574L43.5662 48.2941Z" fill="white"></path>
    </mask>
    <g mask="url(#mask1_210_396)">
      <path opacity="0.24" d="M45.5882 44.25H29.4118V45.8676H45.5882V44.25Z" fill="black"></path>
    </g>
    <g style="mix-blend-mode:soft-light" opacity="0.8">
      <path d="M39.9265 45.8677H39.1176V48.2941H39.9265V45.8677Z" fill="white"></path>
    </g>
    <g style="mix-blend-mode:soft-light" opacity="0.8">
      <path d="M41.1397 45.8677H40.7353V48.2941H41.1397V45.8677Z" fill="white"></path>
    </g>
    <path d="M14.8529 44.25C13.0735 44.25 11.6176 42.7941 11.6176 41.0147V11.0882C11.6176 9.30879 13.0735 7.85291 14.8529 7.85291H60.1471C61.9265 7.85291 63.3823 9.30879 63.3823 11.0882V41.0147C63.3823 42.7941 61.9265 44.25 60.1471 44.25H14.8529Z" fill="#453F3C"></path>
    <path d="M60.1471 42.6323H14.8529C13.9632 42.6323 13.2353 41.9044 13.2353 41.0147V11.0882C13.2353 10.1985 13.9632 9.47058 14.8529 9.47058H60.1471C61.0368 9.47058 61.7647 10.1985 61.7647 11.0882V41.0147C61.7647 41.9044 61.0368 42.6323 60.1471 42.6323Z" fill="#EDEDED"></path>
    <path d="M13.2353 36.9706V11.0882C13.2353 10.1985 13.9632 9.47058 14.8529 9.47058H60.1471C61.0368 9.47058 61.7647 10.1985 61.7647 11.0882V36.9706H13.2353Z" fill="#453F3C"></path>
    <path d="M60.1471 11.0883H14.8529V36.9706H60.1471V11.0883Z" fill="#453F3C"></path>
    <path d="M37.5 41.0147C38.17 41.0147 38.7132 40.4715 38.7132 39.8015C38.7132 39.1314 38.17 38.5883 37.5 38.5883C36.8299 38.5883 36.2868 39.1314 36.2868 39.8015C36.2868 40.4715 36.8299 41.0147 37.5 41.0147Z" fill="#453F3C"></path>
    <g style="mix-blend-mode:soft-light" opacity="0.2">
      <path d="M29.8162 35.3529H24.9632L50.8456 9.47058H55.6985L29.8162 35.3529Z" fill="white"></path>
      <path d="M20.9191 35.3529H19.3015L45.1838 9.47058H46.8015L20.9191 35.3529Z" fill="white"></path>
    </g>
    <mask id="mask2_210_396" style="mask-type:luminance" maskUnits="userSpaceOnUse" x="13" y="9" width="49" height="34">
      <path d="M60.1471 42.6323H14.8529C13.9632 42.6323 13.2353 41.9044 13.2353 41.0147V11.0882C13.2353 10.1985 13.9632 9.47058 14.8529 9.47058H60.1471C61.0368 9.47058 61.7647 10.1985 61.7647 11.0882V41.0147C61.7647 41.9044 61.0368 42.6323 60.1471 42.6323Z" fill="white"></path>
    </mask>
    <g mask="url(#mask2_210_396)">
      <path opacity="0.24" d="M63.3823 41.8235H11.6176V44.25H63.3823V41.8235Z" fill="black"></path>
    </g>
    <g style="mix-blend-mode:overlay" opacity="0.4">
      <path d="M44.375 36.9706H43.5662V41.8235H44.375V36.9706Z" fill="white"></path>
    </g>
    <g style="mix-blend-mode:overlay" opacity="0.4">
      <path d="M45.5882 36.9706H45.1838V41.8235H45.5882V36.9706Z" fill="white"></path>
    </g>
    <path d="M27.3897 53.147V50.7205C27.3897 49.386 28.4816 48.2941 29.8162 48.2941H45.1838C46.5184 48.2941 47.6103 49.386 47.6103 50.7205V53.147H27.3897Z" fill="#453F3C"></path>
    <path d="M29.0073 51.5294V50.7206C29.0073 50.2757 29.3713 49.9117 29.8162 49.9117H45.1838C45.6287 49.9117 45.9926 50.2757 45.9926 50.7206V51.5294H29.0073Z" fill="#EDEDED"></path>
    <mask id="mask3_210_396" style="mask-type:luminance" maskUnits="userSpaceOnUse" x="29" y="49" width="17" height="3">
      <path d="M29.0073 51.5294V50.7206C29.0073 50.2757 29.3713 49.9117 29.8162 49.9117H45.1838C45.6287 49.9117 45.9926 50.2757 45.9926 50.7206V51.5294H29.0073Z" fill="white"></path>
    </mask>
    <g mask="url(#mask3_210_396)">
      <g style="mix-blend-mode:overlay" opacity="0.8">
        <path d="M46.8015 49.5073H27.3897V50.7206H46.8015V49.5073Z" fill="white"></path>
      </g>
    </g>
    <g style="mix-blend-mode:overlay" opacity="0.8">
      <path d="M41.5441 50.7206H40.7353V51.5294H41.5441V50.7206Z" fill="white"></path>
    </g>
    <g style="mix-blend-mode:overlay" opacity="0.8">
      <path d="M42.7573 50.7206H42.3529V51.5294H42.7573V50.7206Z" fill="white"></path>
    </g>
  </g>
  <g style="mix-blend-mode:overlay" clip-path="url(#clip0_210_396)">
    <path d="M48.8203 14.724V32.4322C48.8203 33.1959 48.2004 33.8203 47.4367 33.8203H27.5633C26.7996 33.8203 26.1797 33.2004 26.1797 32.4322V14.724H48.8203Z" fill="white"></path>
    <path d="M48.8203 14.724V32.4322C48.8203 33.1959 48.2004 33.8203 47.4367 33.8203H46.1519C46.9156 33.8203 47.54 33.2004 47.54 32.4322V14.724H48.8203Z" fill="#EDEDED"></path>
    <path d="M48.8203 14.7241V12.5678C48.8203 11.8042 48.2004 11.1842 47.4367 11.1842H27.5678C26.7996 11.1797 26.1797 11.7997 26.1797 12.5678V14.7241H48.8203Z" fill="#D3D9D9"></path>
    <path d="M28.8525 11.1797C28.0889 11.1797 27.4645 11.7996 27.4645 12.5633V14.724H26.1797V12.5633C26.1797 11.7996 26.7996 11.1797 27.5633 11.1797H28.8525Z" fill="#EDEDED"></path>
    <path d="M48.8203 12.5633V14.724H47.5355V12.5633C47.5355 11.7996 46.9156 11.1797 46.1475 11.1797H47.4367C48.2004 11.1797 48.8203 11.7996 48.8203 12.5633Z" fill="#A8B2B4"></path>
    <path d="M49 12.5633C49 11.7008 48.2992 11 47.4367 11H27.5678C26.7008 11 26 11.7008 26 12.5633V32.4322C26 33.2947 26.7008 34 27.5633 34H47.4322C48.2947 34 48.9955 33.2992 48.9955 32.4322L49 12.5633ZM26.3594 12.5633C26.3594 11.8984 26.9029 11.3594 27.5678 11.3594H47.4367C48.1016 11.3594 48.6406 11.8984 48.6406 12.5633V14.5398H26.3594V12.5633ZM48.6406 32.4322C48.6406 33.0971 48.1016 33.6406 47.4367 33.6406H27.5633C26.8984 33.6406 26.3594 33.0971 26.3594 32.4322V14.9037H48.6406V32.4322Z" fill="#333333"></path>
    <path d="M28.273 13.583C28.6204 13.583 28.902 13.3014 28.902 12.9541C28.902 12.6068 28.6204 12.3252 28.273 12.3252C27.9257 12.3252 27.6441 12.6068 27.6441 12.9541C27.6441 13.3014 27.9257 13.583 28.273 13.583Z" fill="#FC8A8A"></path>
    <path d="M30.5146 13.583C30.862 13.583 31.1436 13.3014 31.1436 12.9541C31.1436 12.6068 30.862 12.3252 30.5146 12.3252C30.1673 12.3252 29.8857 12.6068 29.8857 12.9541C29.8857 13.3014 30.1673 13.583 30.5146 13.583Z" fill="#FEDD8E"></path>
    <path d="M32.7518 13.583C33.0991 13.583 33.3807 13.3014 33.3807 12.9541C33.3807 12.6068 33.0991 12.3252 32.7518 12.3252C32.4044 12.3252 32.1229 12.6068 32.1229 12.9541C32.1229 13.3014 32.4044 13.583 32.7518 13.583Z" fill="#7BDE9E"></path>
    <path d="M28.902 12.9496C28.902 13.3 28.6189 13.5785 28.273 13.5785C28.0035 13.5785 27.7699 13.4078 27.6801 13.1608C27.7475 13.1832 27.8193 13.1967 27.8957 13.1967C28.2416 13.1967 28.5246 12.9182 28.5246 12.5678C28.5246 12.4914 28.5111 12.4196 28.4887 12.3522C28.7268 12.451 28.902 12.6801 28.902 12.9496Z" fill="#F96363"></path>
    <path d="M31.1391 12.9496C31.1391 13.3 30.8561 13.5785 30.5102 13.5785C30.2406 13.5785 30.007 13.4078 29.9172 13.1608C29.9846 13.1832 30.0564 13.1967 30.1328 13.1967C30.4787 13.1967 30.7617 12.9182 30.7617 12.5678C30.7617 12.4914 30.7482 12.4196 30.7258 12.3522C30.9684 12.451 31.1391 12.6801 31.1391 12.9496Z" fill="#FDD267"></path>
    <path d="M33.3807 12.9496C33.3807 13.3 33.0977 13.5785 32.7518 13.5785C32.4822 13.5785 32.2486 13.4078 32.1588 13.1608C32.2262 13.1832 32.298 13.1967 32.3699 13.1967C32.7158 13.1967 32.9988 12.9182 32.9988 12.5678C32.9988 12.4914 32.9854 12.4196 32.9584 12.3522C33.2055 12.451 33.3807 12.6801 33.3807 12.9496Z" fill="#50D27E"></path>
    <path d="M28.273 13.7627C27.8283 13.7627 27.4645 13.3988 27.4645 12.9541C27.4645 12.5094 27.8283 12.1455 28.273 12.1455C28.7178 12.1455 29.0816 12.5094 29.0816 12.9541C29.0816 13.3988 28.7178 13.7627 28.273 13.7627ZM28.273 12.5049C28.026 12.5049 27.8238 12.707 27.8238 12.9541C27.8238 13.2012 28.026 13.4033 28.273 13.4033C28.5201 13.4033 28.7223 13.2012 28.7223 12.9541C28.7223 12.707 28.5201 12.5049 28.273 12.5049Z" fill="#333333"></path>
    <path d="M30.5146 13.7627C30.0699 13.7627 29.7061 13.3988 29.7061 12.9541C29.7061 12.5094 30.0699 12.1455 30.5146 12.1455C30.9594 12.1455 31.3232 12.5094 31.3232 12.9541C31.3232 13.3988 30.9594 13.7627 30.5146 13.7627ZM30.5146 12.5049C30.2676 12.5049 30.0654 12.707 30.0654 12.9541C30.0654 13.2012 30.2676 13.4033 30.5146 13.4033C30.7617 13.4033 30.9639 13.2012 30.9639 12.9541C30.9639 12.707 30.7617 12.5049 30.5146 12.5049Z" fill="#333333"></path>
    <path d="M32.7518 13.7627C32.307 13.7627 31.9432 13.3988 31.9432 12.9541C31.9432 12.5094 32.307 12.1455 32.7518 12.1455C33.1965 12.1455 33.5604 12.5094 33.5604 12.9541C33.5604 13.3988 33.1965 13.7627 32.7518 13.7627ZM32.7518 12.5049C32.5047 12.5049 32.3025 12.707 32.3025 12.9541C32.3025 13.2012 32.5047 13.4033 32.7518 13.4033C32.9988 13.4033 33.201 13.2012 33.201 12.9541C33.201 12.707 32.9988 12.5049 32.7518 12.5049Z" fill="#333333"></path>
    <path d="M47.3559 12.9496C47.3559 13.3 47.0729 13.5785 46.727 13.5785H36.3186C35.9727 13.5785 35.6897 13.3 35.6897 12.9496C35.6897 12.6037 35.9727 12.3207 36.3186 12.3207H46.727C47.0729 12.3207 47.3559 12.6037 47.3559 12.9496Z" fill="white"></path>
    <path d="M47.3559 12.9495C47.3559 13.2999 47.0729 13.5784 46.727 13.5784H36.3186C35.9816 13.5784 35.7076 13.3134 35.6897 12.981C35.7795 13.0304 35.8828 13.0573 35.9906 13.0573H46.399C46.7449 13.0573 47.0279 12.7788 47.0279 12.4284V12.4015C47.2211 12.5048 47.3559 12.7159 47.3559 12.9495Z" fill="#EDEDED"></path>
    <path d="M46.727 13.7582H36.3186C35.8738 13.7582 35.51 13.3943 35.51 12.9496C35.51 12.5049 35.8738 12.141 36.3186 12.141H46.727C47.1717 12.141 47.5356 12.5049 47.5356 12.9496C47.5356 13.3943 47.1717 13.7582 46.727 13.7582ZM36.3186 12.5004C36.0715 12.5004 35.8693 12.7025 35.8693 12.9496C35.8693 13.1967 36.0715 13.3988 36.3186 13.3988H46.727C46.974 13.3988 47.1762 13.1967 47.1762 12.9496C47.1762 12.7025 46.974 12.5004 46.727 12.5004H36.3186Z" fill="#333333"></path>
    <path d="M46.4664 16.5344C46.4664 16.5344 46.4664 18.4256 46.4664 20.9458H28.5336V16.5344H46.4664Z" fill="#FB8A8A"></path>
    <path d="M46.4664 16.5344C46.4664 16.5344 46.4664 16.8938 46.4664 17.5092H28.5336V16.5344H46.4664Z" fill="#FCB1B1"></path>
    <path d="M46.4664 19.9709H28.5336V20.9413H46.4664V19.9709Z" fill="#F96363"></path>
    <path d="M46.4664 21.1209H28.5336C28.4348 21.1209 28.3539 21.0401 28.3539 20.9412V16.5299C28.3539 16.4311 28.4348 16.3502 28.5336 16.3502H46.4664C46.5652 16.3502 46.6461 16.4311 46.6461 16.5299V20.9412C46.6461 21.0446 46.5652 21.1209 46.4664 21.1209ZM28.7133 20.7615H46.2867V16.7096H28.7133V20.7615Z" fill="#333333"></path>
    <path d="M46.4664 22.9313H28.5336C28.4348 22.9313 28.3539 22.8504 28.3539 22.7516C28.3539 22.6528 28.4348 22.5719 28.5336 22.5719H46.4664C46.5652 22.5719 46.6461 22.6528 46.6461 22.7516C46.6461 22.8504 46.5652 22.9313 46.4664 22.9313Z" fill="#333333"></path>
    <path d="M46.4664 32.1897H28.5336C28.4348 32.1897 28.3539 32.1088 28.3539 32.01C28.3539 31.9112 28.4348 31.8303 28.5336 31.8303H46.4664C46.5652 31.8303 46.6461 31.9112 46.6461 32.01C46.6461 32.1088 46.5652 32.1897 46.4664 32.1897Z" fill="#333333"></path>
    <path d="M46.4664 30.3793H38.0795C37.9807 30.3793 37.8998 30.2984 37.8998 30.1996C37.8998 30.1008 37.9807 30.0199 38.0795 30.0199H46.4664C46.5652 30.0199 46.6461 30.1008 46.6461 30.1996C46.6461 30.2984 46.5652 30.3793 46.4664 30.3793Z" fill="#333333"></path>
    <path d="M46.4664 28.5016H38.0795C37.9807 28.5016 37.8998 28.4207 37.8998 28.3219C37.8998 28.2231 37.9807 28.1422 38.0795 28.1422H46.4664C46.5652 28.1422 46.6461 28.2231 46.6461 28.3219C46.6461 28.4207 46.5652 28.5016 46.4664 28.5016Z" fill="#333333"></path>
    <path d="M46.4664 26.6194H38.0795C37.9807 26.6194 37.8998 26.5385 37.8998 26.4397C37.8998 26.3409 37.9807 26.26 38.0795 26.26H46.4664C46.5652 26.26 46.6461 26.3409 46.6461 26.4397C46.6461 26.5385 46.5652 26.6194 46.4664 26.6194Z" fill="#333333"></path>
    <path d="M46.4664 24.7372H38.0795C37.9807 24.7372 37.8998 24.6563 37.8998 24.5575C37.8998 24.4587 37.9807 24.3778 38.0795 24.3778H46.4664C46.5652 24.3778 46.6461 24.4587 46.6461 24.5575C46.6461 24.6563 46.5652 24.7372 46.4664 24.7372Z" fill="#333333"></path>
    <path d="M35.7256 24.5575H28.5336V30.1997H35.7256V24.5575Z" fill="#FDDD8D"></path>
    <path d="M35.7211 24.5575H28.5336V25.73H35.7211V24.5575Z" fill="#FEE8B3"></path>
    <path d="M35.7211 29.0316H28.5336V30.2041H35.7211V29.0316Z" fill="#FDD267"></path>
    <path d="M35.7211 30.3794H28.5336C28.4348 30.3794 28.3539 30.2985 28.3539 30.1997V24.5575C28.3539 24.4587 28.4348 24.3778 28.5336 24.3778H35.7256C35.8244 24.3778 35.9053 24.4587 35.9053 24.5575V30.1997C35.9008 30.303 35.8244 30.3794 35.7211 30.3794ZM28.7133 30.02H35.5459V24.7372H28.7133V30.02Z" fill="#333333"></path>
  </g>
  <rect x="75" y="1" width="102" height="58" fill="#333333"></rect>
  <path d="M101.309 29.444C102.546 29.6953 103.532 30.285 104.267 31.213C105.021 32.1217 105.398 33.1947 105.398 34.432C105.398 36.1527 104.818 37.5157 103.658 38.521C102.517 39.507 100.855 40 98.6699 40H89.8829V19.526H98.4959C100.565 19.526 102.15 19.9803 103.252 20.889C104.373 21.7977 104.934 23.0737 104.934 24.717C104.934 25.993 104.596 27.037 103.919 27.849C103.262 28.661 102.392 29.1927 101.309 29.444ZM93.9719 28.11H97.6549C98.6795 28.11 99.4529 27.8877 99.9749 27.443C100.516 26.979 100.787 26.3217 100.787 25.471C100.787 24.6203 100.526 23.963 100.004 23.499C99.4819 23.035 98.6795 22.803 97.5969 22.803H93.9719V28.11ZM97.8579 36.665C98.9405 36.665 99.7719 36.433 100.352 35.969C100.932 35.4857 101.222 34.7897 101.222 33.881C101.222 32.9723 100.922 32.2763 100.323 31.793C99.7429 31.2903 98.9115 31.039 97.8289 31.039H93.9719V36.665H97.8579ZM112.352 36.868H119.225V40H108.263V19.526H112.352V36.868ZM131.257 19.236C133.171 19.236 134.902 19.6807 136.448 20.57C138.014 21.4593 139.242 22.7063 140.131 24.311C141.04 25.8963 141.494 27.6943 141.494 29.705C141.494 31.7157 141.04 33.5233 140.131 35.128C139.242 36.7327 138.014 37.9797 136.448 38.869C134.902 39.7583 133.171 40.203 131.257 40.203C129.343 40.203 127.603 39.7583 126.037 38.869C124.491 37.9797 123.263 36.7327 122.354 35.128C121.465 33.5233 121.02 31.7157 121.02 29.705C121.02 27.6943 121.465 25.8963 122.354 24.311C123.263 22.7063 124.491 21.4593 126.037 20.57C127.603 19.6807 129.343 19.236 131.257 19.236ZM131.257 23.006C130.059 23.006 129.005 23.2767 128.096 23.818C127.188 24.3593 126.472 25.1423 125.95 26.167C125.448 27.1723 125.196 28.3517 125.196 29.705C125.196 31.0583 125.448 32.2473 125.95 33.272C126.472 34.2773 127.188 35.0507 128.096 35.592C129.005 36.1333 130.059 36.404 131.257 36.404C132.456 36.404 133.51 36.1333 134.418 35.592C135.327 35.0507 136.033 34.2773 136.535 33.272C137.057 32.2473 137.318 31.0583 137.318 29.705C137.318 28.3517 137.057 27.1723 136.535 26.167C136.033 25.1423 135.327 24.3593 134.418 23.818C133.51 23.2767 132.456 23.006 131.257 23.006ZM154.052 19.323C156.546 19.323 158.615 19.9417 160.258 21.179C161.902 22.397 162.955 24.05 163.419 26.138H159.127C158.721 25.21 158.074 24.4753 157.184 23.934C156.314 23.3733 155.28 23.093 154.081 23.093C152.902 23.093 151.858 23.3637 150.949 23.905C150.041 24.4463 149.335 25.2197 148.832 26.225C148.33 27.2303 148.078 28.4097 148.078 29.763C148.078 31.909 148.649 33.5813 149.789 34.78C150.949 35.9787 152.525 36.578 154.516 36.578C155.986 36.578 157.242 36.143 158.286 35.273C159.35 34.403 160.036 33.1947 160.345 31.648H153.414V28.719H163.767V32.663C163.477 34.0163 162.907 35.2633 162.056 36.404C161.225 37.5447 160.123 38.463 158.75 39.159C157.397 39.8357 155.841 40.174 154.081 40.174C152.071 40.174 150.292 39.739 148.745 38.869C147.218 37.9797 146.029 36.752 145.178 35.186C144.347 33.6007 143.931 31.793 143.931 29.763C143.931 27.733 144.347 25.935 145.178 24.369C146.029 22.7837 147.218 21.5463 148.745 20.657C150.273 19.7677 152.042 19.323 154.052 19.323Z" fill="white"></path>
  <defs>
    <clipPath id="clip0_210_396">
      <rect width="23" height="23" fill="white" transform="translate(26 11)"></rect>
    </clipPath>
  </defs>
</svg>
